<?xml version="1.0" encoding="utf-8"?>
<!-- Generator: Adobe Illustrator 25.2.1, SVG Export Plug-In . SVG Version: 6.00 Build 0)  -->
<svg version="1.1" id="레이어_1" xmlns="http://www.w3.org/2000/svg" xmlns:xlink="http://www.w3.org/1999/xlink" x="0px"
	 y="0px" viewBox="0 0 595.3 841.9" style="enable-background:new 0 0 595.3 841.9;" xml:space="preserve">
<style type="text/css">
	.st0{fill:#46746F;}
	.st1{fill:#1A3D39;}
</style>
<g>
	<path class="st0" d="M141.1,303.5c16.7,0,22.6,7.2,22.6,26.2c0,18.2-6.3,26.7-22.7,26.7h-22v-52.9H141.1z M129.9,312.6v34.7h9.7
		c10.6,0,13.1-4.1,13.1-17.6c0-14.4-1.5-17.2-14.2-17.2H129.9z"/>
	<path class="st0" d="M170.1,303.5H181v52.9h-10.9V303.5z"/>
	<path class="st0" d="M201.4,312.8h-15.9v-9.3h42.7v9.3h-15.9v43.6h-10.9V312.8z"/>
	<path class="st0" d="M256.4,302.3c12.6,0,25.7,4.1,25.7,27.6c0,23.2-12.6,27.7-25.4,27.7c-13.5,0-25.6-4.9-25.6-27.7
		C231,306,244.5,302.3,256.4,302.3z M257,348.3c7.4,0,14-1.5,14-18.7c0-13.5-4.1-18-14.7-18c-9.8,0-14.2,3.9-14.2,18.6
		C242.1,345.6,247,348.3,257,348.3z"/>
	<path class="st1" d="M297.6,339.8c0.4,5.5,1.3,8.5,11.7,8.5c5.5,0,9.6-0.8,9.6-6.2c0-3.2-1.5-5-6.1-6.3l-12.8-3.5
		c-6.4-1.7-12.1-4.8-12.1-14.5c0-7.6,3.5-15.6,19.8-15.6c15.6,0,20.4,7.2,20.6,16.7h-10.9c-0.5-4.4-0.7-7.4-10.2-7.4
		c-5.5,0-8.3,1-8.3,5.2c0,3.8,2.3,4.9,5.4,5.8l11.8,3.2c7.5,2,13.9,4.9,13.9,15.5c0,14.9-12.8,16.3-20.6,16.3
		c-17.3,0-22-6.8-22.6-17.8H297.6z"/>
	<path class="st1" d="M343.4,356.4c-5-13-8.8-25.9-11.4-38.9h10.6c1.2,9.1,3.3,18.1,6.4,27.1l6-27.1h10.2l6.2,27.1
		c3.2-9.1,5.3-18.1,6.5-27.1h10.4c-2.8,13-6.5,25.9-11.7,38.9h-11l-5.7-25l-5.5,25H343.4z"/>
	<path class="st1" d="M390.9,329.3c0.5-10,6.3-12.8,16.7-12.8c10.8,0,16.4,2.9,16.4,11.4v28.5h-9.8v-3c-2,2.1-5.8,3.9-11.9,3.9
		c-9.3,0-12.6-4.1-12.6-10.8c0-8.6,5.6-11.9,11.3-12.8l12.8-2v-2.4c0-3.6-1.8-4.6-6.6-4.6c-5.1,0-6.1,1.2-6.6,4.5H390.9z
		 M413.9,338.5l-7.2,1.2c-3.9,0.6-6.7,1.4-6.7,5.5c0,2.9,1.5,4.6,6,4.6c6.3,0,7.8-3.4,7.8-8.2V338.5z"/>
	<path class="st1" d="M441.4,317.5v4.2c2.7-4,6.5-5.2,11.9-5.2c10.6,0,16.2,4.6,16.2,20.6c0,13.3-3.9,20.2-16.2,20.2
		c-7.2,0-10-2.4-11.4-4.3v18.3h-10.3v-53.8H441.4z M450.4,349c6.8,0,8.4-3.5,8.4-11.8c0-8.9-1.9-12.2-8.7-12.2
		c-6.4,0-8.6,2.9-8.6,11.7C441.5,345.6,443.7,349,450.4,349z"/>
</g>
</svg>
